<svg width="18" height="18" viewBox="0 0 18 18" fill="none" xmlns="http://www.w3.org/2000/svg">
<path d="M6.14258 0.385742C2.96694 0.385742 0.392578 2.9601 0.392578 6.13574V13.2426C0.392578 13.6568 0.728365 13.9926 1.14258 13.9926C1.55679 13.9926 1.89258 13.6568 1.89258 13.2426V6.13574C1.89258 3.78853 3.79537 1.88574 6.14258 1.88574H13.1554C13.5696 1.88574 13.9054 1.54996 13.9054 1.13574C13.9054 0.721529 13.5696 0.385742 13.1554 0.385742H6.14258Z" fill="#F2F2F2"/>
<path fill-rule="evenodd" clip-rule="evenodd" d="M15.5451 3.929C12.3042 3.56678 8.98101 3.56678 5.74006 3.929C4.81678 4.03219 4.07484 4.75879 3.96602 5.68922C3.58164 8.9757 3.58164 12.2958 3.96602 15.5823C4.07484 16.5127 4.81678 17.2393 5.74006 17.3425C8.98101 17.7047 12.3042 17.7047 15.5451 17.3425C16.4684 17.2393 17.2103 16.5127 17.3192 15.5823C17.7035 12.2958 17.7035 8.9757 17.3192 5.68922C17.2103 4.75879 16.4684 4.03219 15.5451 3.929ZM5.90667 5.41972C9.03689 5.06987 12.2483 5.06987 15.3785 5.41972C15.6159 5.44625 15.8025 5.63395 15.8293 5.86347C16.2002 9.03418 16.2002 12.2373 15.8293 15.408C15.8025 15.6375 15.6159 15.8252 15.3785 15.8518C12.2483 16.2016 9.03689 16.2016 5.90667 15.8518C5.66931 15.8252 5.48271 15.6375 5.45587 15.408C5.08502 12.2373 5.08502 9.03418 5.45587 5.86347C5.48271 5.63395 5.66931 5.44625 5.90667 5.41972Z" fill="#F2F2F2"/>
</svg>
